<?xml version="1.0" standalone="no"?>
<!DOCTYPE svg PUBLIC "-//W3C//DTD SVG 20010904//EN"
 "http://www.w3.org/TR/2001/REC-SVG-20010904/DTD/svg10.dtd">
<svg version="1.0" xmlns="http://www.w3.org/2000/svg"
 width="660.000000pt" height="660.000000pt" viewBox="0 0 660.000000 660.000000"
 preserveAspectRatio="xMidYMid meet">
<metadata>
Created by potrace 1.14, written by Peter Selinger 2001-2017
</metadata>
<g transform="translate(0.000000,660.000000) scale(0.100000,-0.100000)"
fill="#000000" stroke="none">
<path d="M0 3300 l0 -3300 3300 0 3300 0 0 3300 0 3300 -3300 0 -3300 0 0
-3300z m6005 3075 l25 -24 0 -1501 0 -1501 -25 -24 -24 -25 -2681 0 -2681 0
-24 25 -25 24 0 1501 0 1501 25 24 24 25 2681 0 2681 0 24 -25z m-2930 -3945
c191 -60 315 -175 394 -363 46 -113 63 -212 63 -377 -1 -122 -5 -160 -26 -244
-33 -126 -69 -204 -134 -285 -126 -156 -296 -231 -527 -231 -153 0 -269 31
-379 100 -123 78 -204 188 -255 345 -88 271 -51 625 85 822 83 121 231 217
382 248 101 21 307 14 397 -15z m1563 9 c64 -12 208 -65 218 -80 3 -6 -14 -51
-37 -100 -32 -67 -47 -89 -58 -86 -9 3 -56 20 -105 37 -105 37 -237 50 -328
31 -176 -37 -309 -176 -354 -368 -23 -99 -15 -333 14 -424 47 -142 135 -237
262 -281 56 -20 85 -23 200 -23 114 1 151 5 237 28 56 15 104 27 107 27 3 0 6
-47 6 -104 l0 -104 -78 -21 c-139 -37 -192 -43 -337 -38 -147 5 -227 23 -325
72 -217 110 -340 363 -340 695 1 400 209 679 559 745 82 16 256 13 359 -6z
m942 10 c91 -9 260 -53 298 -77 10 -7 6 -28 -19 -98 -17 -49 -34 -92 -38 -96
-3 -4 -56 9 -116 28 -289 94 -496 33 -494 -146 0 -110 49 -159 230 -234 363
-150 442 -217 469 -394 30 -191 -53 -358 -215 -434 -98 -45 -158 -59 -295 -65
-135 -6 -247 8 -373 47 l-67 21 0 115 c0 89 3 114 13 110 45 -18 210 -69 252
-77 27 -5 95 -10 150 -10 160 0 250 37 293 121 12 25 22 63 22 87 0 119 -65
171 -355 283 -260 101 -364 235 -353 457 6 135 50 213 161 284 120 78 238 99
437 78z m-4194 -19 c171 -30 255 -65 362 -150 59 -46 130 -141 166 -224 75
-168 85 -434 26 -638 -53 -184 -188 -332 -369 -406 -124 -51 -228 -63 -518
-60 l-268 3 -3 730 c-1 402 0 736 3 743 6 15 512 17 601 2z"/>
<path d="M1587 5534 c-4 -4 -7 -336 -7 -739 0 -555 3 -734 12 -743 15 -15 312
-16 498 -2 220 17 375 78 494 196 116 115 177 258 195 454 17 183 -4 335 -64
465 -80 174 -221 293 -410 346 -73 20 -107 22 -395 26 -173 3 -319 1 -323 -3z
m617 -224 c233 -59 336 -215 336 -510 0 -185 -41 -310 -131 -399 -97 -98 -194
-130 -427 -139 l-162 -7 0 538 0 537 153 0 c121 0 171 -4 231 -20z"/>
<path d="M3036 5524 c-3 -9 -6 -338 -6 -733 0 -558 3 -721 13 -734 11 -16 46
-17 432 -15 l420 3 3 108 3 107 -316 0 -315 0 0 230 0 230 295 0 295 0 0 105
0 105 -295 0 -295 0 0 200 0 200 315 0 315 0 0 105 0 105 -429 0 c-382 0 -430
-2 -435 -16z"/>
<path d="M3989 5403 c309 -873 482 -1347 495 -1355 20 -13 193 -9 204 5 5 6
57 145 115 307 58 162 176 490 261 728 86 238 156 438 156 443 0 6 -48 9 -122
7 l-121 -3 -100 -280 c-54 -154 -143 -406 -197 -560 -54 -154 -101 -273 -103
-265 -3 8 -75 213 -161 455 -85 242 -171 488 -192 548 l-36 107 -124 0 -123 0
48 -137z"/>
<path d="M2713 2235 c-80 -22 -124 -48 -176 -104 -99 -105 -144 -268 -134
-479 11 -250 90 -401 247 -476 63 -30 70 -31 200 -31 130 0 137 1 200 31 72
34 144 104 180 173 54 107 78 287 60 451 -26 233 -105 362 -258 421 -74 28
-242 36 -319 14z"/>
<path d="M1015 2229 c-3 -8 -4 -252 -3 -544 l3 -530 135 1 c290 2 452 79 535
257 39 82 55 165 55 287 0 219 -65 373 -189 452 -89 56 -188 79 -368 85 -134
5 -163 3 -168 -8z"/>
</g>
</svg>
